<?xml version="1.0" encoding="utf-8"?>
<!-- Generator: Adobe Illustrator 17.0.0, SVG Export Plug-In . SVG Version: 6.00 Build 0)  -->
<!DOCTYPE svg PUBLIC "-//W3C//DTD SVG 1.1//EN" "http://www.w3.org/Graphics/SVG/1.1/DTD/svg11.dtd">
<svg version="1.1" id="Layer_1" xmlns="http://www.w3.org/2000/svg" xmlns:xlink="http://www.w3.org/1999/xlink" x="0px" y="0px"
	 width="876px" height="618px" viewBox="0 0 876 618" enable-background="new 0 0 876 618" xml:space="preserve">
<g>
	<path d="M338,76c2,0,4,0,6,0c0,153.33,0,306.67,0,460c-2,0-4,0-6,0C338,382.67,338,229.33,338,76z"/>
	<path d="M220.56,177.39c5.28-3.74,13.48,0.25,13.89,6.68c0.88,6.17-5.39,11.2-11.28,10.07c-20.38,20.34-40.71,40.74-61.08,61.1
		c8.25,8.24,16.5,16.49,24.75,24.74c1.44,1.25,1.41,3.27,1.47,5.02c-0.01,49.34,0.02,98.68-0.01,148.01
		c0.15,1.69-0.54,3.46-2.16,4.2c-2.71,1.82-6.32-1.14-5.85-4.16c-0.06-49.43,0.01-98.86-0.04-148.28
		c-18.36-18.44-36.87-36.73-55.35-55.03c-3.23,0.48-6.84,0.14-9.26-2.29c-4.01-3.84-3.38-11.44,1.53-14.23
		c3.87-2.58,9.54-1.47,12.22,2.3c1.91,2.39,1.64,5.63,1.41,8.49c8.54,8.46,16.96,17.05,25.57,25.44
		c5.86-5.88,11.74-11.74,17.61-17.61c-8.47-8.52-17.05-16.92-25.44-25.52c-4.88,0.22-9.95-3.06-10.36-8.2
		c-1.06-6.49,6.3-12.21,12.34-9.49c5.19,1.83,7,8.28,4.72,13.01c8.18,8.14,16.32,16.3,24.47,24.46c5.3-5.29,10.58-10.59,15.85-15.9
		c-4.45-4.44-8.86-8.93-13.35-13.35c-1.31-1.49-3.48-1.01-5.19-1.54c-4.9-1.29-7.56-7.27-5.67-11.86c1.93-5.57,9.6-7.76,14.13-3.91
		c3.77,2.72,3.84,7.87,2.59,11.93c4.4,4.34,8.74,8.74,13.13,13.09c5.24-5.21,10.48-10.43,15.68-15.69
		C215.6,184.71,216.69,179.78,220.56,177.39z"/>
	<path d="M239.69,199.09c-0.6-4.75,2.19-10.05,7.19-10.86c6.35-1.76,12.72,4.95,10.7,11.2c-1.26,5.83-8.26,8.11-13.35,5.85
		c-9.17,9.48-18.57,18.74-27.83,28.13c-1.11,0.84-1.23,2.24-1.19,3.53c-0.01,65.36,0.03,130.73-0.02,196.1
		c0.38,2.87-1.76,4.63-4.2,5.48c-1.66-1.11-3.96-2.18-3.72-4.55c-0.12-51.99,0.11-103.99-0.12-155.98
		c-5.08-4.97-10.02-10.09-15.12-15.04c-6.61,2.5-14.35-4.2-12.01-11.07c1.31-6.26,9.98-8.86,14.56-4.48c2.99,2.24,3.63,6.2,3,9.68
		c3.13,3.38,6.48,6.54,9.69,9.83c-0.05-11.33-0.03-22.66-0.02-33.98c-0.28-2.64,2.24-4.13,3.76-5.86
		C220.61,217.78,229.78,208.04,239.69,199.09z"/>
	<g>
		<path d="M446.8,193.96c20.32-2.34,41.05-3,61.3,0.36c23.74,74.18,47.72,148.28,71.41,222.48c-11.21,5.7-24.2,7.17-36.56,5.37
			c-6.72-0.77-13.73-3.61-17.51-9.51c-8.19-12.05-9.84-26.89-14.52-40.39c-14.96,0.76-29.95,0.39-44.92,0.48
			c-9.44,0.06-18.87-0.03-28.29-0.47c-4.56,16.05-9.19,32.08-14.03,48.05c-7.43,1.7-15.09,1.81-22.67,1.87
			c-8.58-0.34-17.35-0.62-25.51-3.6c-0.49-0.9-0.98-1.79-1.47-2.67C398.26,341.93,422.46,267.92,446.8,193.96z M473.43,242.23
			c-1.54,9.39-4.27,18.51-6.43,27.76c-4.93,20.53-10.71,40.84-16.96,61c16.49-0.25,33-0.51,49.5,0.05
			c-8.24-29.55-16.61-59.07-24-88.84C475.01,242.21,473.96,242.22,473.43,242.23z"/>
	</g>
	<g>
		<path d="M609.48,193.25c18.2-0.06,36.38-1.15,54.58-1c14.96-0.1,30.09-1.09,44.88,1.68c12.29,2.03,24.22,6.54,34.48,13.65
			c7.59,6.07,13.96,14.07,16.69,23.52c4.12,13.3,4.86,28.29-1.16,41.15c-5.22,10.94-14.01,20.78-25.57,25.09
			c0.08,0.19,0.25,0.57,0.33,0.76c2.68-0.13,5.07,1.68,7.52,2.62c21.9,11.37,34.74,37.02,32.47,61.36
			c-1.05,15.22-6.77,30.91-18.64,41.02c-12.98,11.38-30.32,15.88-47.1,17.87c-10.97,1.06-22.02,1.22-33.03,0.87
			c-21.87-0.5-43.73-0.72-65.59-1.28c-0.73-1.12-2.29-1.94-2.08-3.45c-0.01-73.81-0.03-147.61,0.01-221.42
			C608,194.88,608.74,194.06,609.48,193.25z M659.37,229.34c0.24,17.81,0.15,35.63,0.05,53.44c7.56-0.08,15.11,0.02,22.67-0.04
			c5.71-0.15,11.63-0.53,16.83-3.14c5.82-2.65,9.73-8.41,11.42-14.44c2.23-7.9,1.66-16.73-2.37-23.96
			c-3.43-6.1-10.07-9.96-16.92-10.78C680.54,229.08,669.91,230.26,659.37,229.34z M659.42,320.22c0.18,21.6,0.02,43.2,0.08,64.8
			c13.5-0.81,27.27,1.33,40.53-2.12c7.71-2.13,14.63-7.61,17.87-15c3.32-8.94,3.73-19.07,0.4-28.07
			c-3.09-9.39-11.46-16.89-21.31-18.43C684.59,319.27,671.93,320.66,659.42,320.22z"/>
	</g>
	<path d="M263.35,228.32c-1.81-4.7,0.66-10.57,5.61-11.99c5.14-1.97,11.54,1.95,11.84,7.51c0.8,4.71-2.93,9.7-7.75,9.97
		c-1.41,0.37-3.24-0.3-4.32,0.87c-4.91,4.82-9.73,9.74-14.61,14.59c5.94,5.89,11.83,11.82,17.75,17.73c2.83-2.9,5.8-5.66,8.49-8.69
		c-1.76-4.9,1.18-11.04,6.47-12c6.24-1.86,12.72,4.55,10.94,10.82c-0.89,5.29-6.72,7.95-11.63,6.97
		c-14.47,14.52-28.95,29.03-43.46,43.52c-0.85,0.94-2.06,1.9-1.78,3.35c-0.07,6.83,0.04,13.66-0.03,20.48
		c12.01-11.87,23.89-23.89,35.88-35.8c-1.62-4.75,0.2-10.97,5.38-12.5c6.5-2.82,14.23,4.29,11.82,10.99
		c-1.13,4.81-6.28,7.3-10.93,6.55c-13.49,13.27-26.76,26.77-40.21,40.09c-0.82,0.88-1.95,1.73-1.85,3.09
		c-0.2,6.27,0.01,12.55-0.09,18.83c4.2-4.17,8.46-8.28,12.52-12.59c-0.91-4.01,0.28-8.52,4.01-10.65
		c5.57-3.77,14.04,0.72,13.83,7.51c0.36,6.29-6.32,10.68-12.14,9.11c-5.38,5.29-10.66,10.68-16.04,15.98
		c-1.03,1.07-2.4,2.19-2.15,3.88c-0.05,12.03,0.02,24.06-0.02,36.09c0.12,1.98-0.59,4.45-2.79,4.94c-2.5,1.18-5.43-1.29-5.23-3.91
		c-0.1-34.71,0-69.42-0.05-104.12c-0.12-1.64,0.28-3.34,1.57-4.45c4.63-4.69,9.33-9.32,13.98-14.01c-2.78-2.84-5.68-5.56-8.59-8.26
		c-4.22,0.91-9.4-0.36-11.27-4.61c-3.2-5.48,1.16-13.28,7.56-13.24c6.24-0.63,10.95,5.95,9.34,11.78c2.77,2.99,5.72,5.81,8.59,8.7
		c4.04-4.03,8.08-8.08,12.13-12.11c-8.79-8.81-17.62-17.58-26.42-26.38c-4.95,1.02-10.6-1.92-11.45-7.15
		c-1.48-5.74,4.01-11.68,9.83-10.84c5.71,0.36,9.72,6.88,7.58,12.18c0.86,1.01,1.77,2,2.68,2.98
		C253.32,238.43,258.53,233.56,263.35,228.32z"/>
	<path d="M102.34,250.56c-2.17-5.29,2.02-11.65,7.62-12.08c4.86-0.65,9.96,3.47,9.89,8.46c0.22,1.51-0.72,3.43,0.65,4.61
		c13.91,15.09,27.96,30.07,41.94,45.11c1.51,1.37,1.92,3.42,1.8,5.39c-0.03,36.98,0.04,73.97-0.05,110.96
		c0.4,3.08-3.26,5.55-5.85,3.78c-2.22-1.05-2.02-3.73-2.12-5.77c-0.04-14.35,0.02-28.7-0.03-43.05c-9.58-9.94-19.46-19.61-29.4-29.2
		c-2.61-0.49-5.58,0.38-7.9-1.33c-5.48-2.96-5.81-11.65-0.68-15.11c4.2-3.26,11.17-1.78,13.44,3.1c1.37,2.19,0.89,4.86,0.76,7.3
		c7.9,8.02,15.9,15.94,23.87,23.9c-0.17-7.23,0-14.47-0.08-21.7c0.23-1.7-1.08-2.93-2.14-4.02c-14.71-14.64-29.31-29.41-44.07-44.01
		c-2.63,0.43-5.49,0.45-7.81-1.05c-4.05-2.46-5.48-8.33-2.93-12.35c2.41-4.56,8.95-5.72,13.06-2.82c3.31,2.19,4.47,6.66,3.47,10.38
		c13.4,13.63,26.99,27.07,40.5,40.6c-0.16-6.56-0.02-13.11-0.09-19.66c-14.04-15.3-28.16-30.52-42.35-45.67
		C109.22,257.47,103.91,255.23,102.34,250.56z"/>
</g>
</svg>
